<svg xmlns="http://www.w3.org/2000/svg" version="1.1" xmlns:xlink="http://www.w3.org/1999/xlink" xmlns:svgjs="http://svgjs.dev/svgjs" width="100%" height="100%" viewBox="0 0 1000 600"><rect width="1000" height="600" x="0" y="0" fill="#ffffff"/><g><circle r="166.66666666666666" cx="317.2537638346354" cy="339.475949693536" fill="#030303" transform="matrix(0.8300846844502625,0,0,0.8300846844502624,0,18.206220512939822)"/><path d="M374.89196255926566 264.4759526115906L374.89196255926566 414.47595663569024L355.0248004712915 414.47595663569024L279.51200297761994 298.87720377867265L279.51200297761994 414.47595663569024L259.615538290696 414.47595663569024L259.615538290696 264.4759526115906L279.51200297761994 264.4759526115906L355.2299186639402 380.572849650755L355.2299186639402 264.4759526115906L374.89196255926566 264.4759526115906Z " fill="#ff0000" transform="matrix(0.8300846844502625,0,0,0.8300846844502624,0,18.206220512939822)"/><path d="M675.1330889581333 272.1816199895678L675.1330889581333 412.5563895124663L656.5407674624261 412.5563895124663L585.8734923968841 304.37540381841774L585.8734923968841 412.5563895124663L567.253748598086 412.5563895124663L567.253748598086 272.1816199895678L585.8734923968841 272.1816199895678L656.7327235840631 380.8287848361636L656.7327235840631 272.1816199895678L675.1330889581333 272.1816199895678ZM770.6723929272247 412.5563895124663L734.3378413316317 364.2657137691914L723.1495416704981 375.9201925828722L723.1495416704981 412.5563895124663L705.3250446613392 412.5563895124663L705.3250446613392 264.475952820993L723.1495416704981 264.475952820993L723.1495416704981 354.03719471624333L732.6925031461708 342.57467202419963L765.1879323090219 308.24194855425065L786.8789740540136 308.24194855425065L746.2939654793136 351.81598816587126L791.595610185668 412.5563895124663L770.6723929272247 412.5563895124663ZM846.6321724893322 414.4759507288373L846.6321724893322 414.4759507288373Q825.4347321999788 414.4759507288373 812.1349152008371 400.54542075860235Q798.8350982016956 386.61489078836746 798.8350982016956 363.30593316100595L798.8350982016956 363.30593316100595L798.8350982016956 360.0152567900843Q798.8350982016956 344.4942332405706 804.7583156693545 332.2913083650696Q810.6815331370134 320.11580579265956 821.3488090394177 313.2053854137241Q831.988662638731 306.3223873378797 844.4383882420511 306.3223873378797L844.4383882420511 306.3223873378797Q864.7583148324923 306.3223873378797 876.0563037059898 319.7044712462943Q887.3268702763963 333.1139774578 887.3268702763963 358.0956955737134L887.3268702763963 358.0956955737134L887.3268702763963 365.49971740828704L816.6595952108544 365.49971740828704Q817.0435074541286 380.93847404852767 825.6815329277979 390.42659091801835Q834.2921360983761 399.91470778750903 847.6193754006088 399.91470778750903L847.6193754006088 399.91470778750903Q857.0526476639174 399.91470778750903 863.6065781026697 396.07558535476716Q870.1605085414219 392.20904061893424 875.0965230978044 385.8470663018191L875.0965230978044 385.8470663018191L885.9831774249368 394.3479802600333Q872.8753165474322 414.4759507288373 846.6321724893322 414.4759507288373ZM844.4383882420511 320.96589718848094L844.4383882420511 320.96589718848094Q833.6340008241917 320.96589718848094 826.3122458988911 328.8360981756019Q818.9630686704996 336.6788768596317 817.2354635757657 350.85620755768576L817.2354635757657 350.85620755768576L869.5023732672377 350.85620755768576L869.5023732672377 349.5125147062261Q868.7345487806891 335.91105237308335 862.153196038846 328.45218593232767Q855.5992656000936 320.96589718848094 844.4383882420511 320.96589718848094ZM907.8661752915656 308.24194855425065L924.730891692539 308.24194855425065L925.2244931481772 319.81416045865836Q936.6870158402209 306.3223873378797 956.1568510348405 306.3223873378797L956.1568510348405 306.3223873378797Q978.0398489014693 306.3223873378797 985.9648944947722 323.077414526489L985.9648944947722 323.077414526489Q991.1477097789739 315.5637034795513 999.484089918642 310.956756560261Q1007.8478923614011 306.3223873378797 1019.2007258410807 306.3223873378797L1019.2007258410807 306.3223873378797Q1053.53344931103 306.3223873378797 1054.109317675941 342.6569389334727L1054.109317675941 342.6569389334727L1054.109317675941 412.5563895124663L1036.2848206667823 412.5563895124663L1036.2848206667823 343.7264087540222Q1036.2848206667823 332.5381090928887 1031.1568499887626 326.99880386850396Q1026.056301613834 321.4594986441192 1014.0179105568792 321.4594986441192L1014.0179105568792 321.4594986441192Q1004.0636145348412 321.4594986441192 997.509684096089 327.38271611177817Q990.9557536573367 333.30593357943707 989.9137061398782 343.34249651074805L989.9137061398782 343.34249651074805L989.9137061398782 412.5563895124663L971.9795199183553 412.5563895124663L971.9795199183553 344.1925879065695Q971.9795199183553 321.4594986441192 949.7126098084524 321.4594986441192L949.7126098084524 321.4594986441192Q932.1623358302037 321.4594986441192 925.6906723007245 336.4046538287216L925.6906723007245 336.4046538287216L925.6906723007245 412.5563895124663L907.8661752915656 412.5563895124663L907.8661752915656 308.24194855425065Z " fill="#ff0000" transform="matrix(0.8300846844502625,0,0,0.8300846844502624,0,18.206220512939822)"/></g></svg>